<svg width="205" height="182" viewBox="0 0 205 182" fill="none" xmlns="http://www.w3.org/2000/svg">
<g clip-path="url(#clip0_1_111)">
<path d="M122.543 70.0535L152.74 74.1733L158.671 56.6075L125.033 53.9364L121.457 49.9071L132.879 43.4491L135.479 45.8833L138.771 46.1269M138.771 46.1269L161.648 47.8197L163.308 42.9512L141.13 41.1033M138.771 46.1269L141.13 41.1033M141.13 41.1033V38.6796" stroke="#EA5C4E" stroke-width="0.876039"/>
<path d="M194.82 2.42983L171.583 15.2311L172.623 11.5534M194.82 2.42983L188.28 1.45581L185.079 4.51699L180.627 3.54298V1.45581H175.478L172.623 11.5534M194.82 2.42983V7.16073M172.623 11.5534H166.016M194.82 7.16073L169.913 23.3015L140.396 110.4M194.82 7.16073L197.602 5.76929H204.142V8.96961L180.627 34.0156L173.948 114.858M140.396 110.4L138.605 120.146L141.431 121.749M140.396 110.4L173.948 114.858M173.948 114.858L172.695 127.103L161.425 128.077L157.251 165.368L182.297 177.334L181.044 181.091L118.708 167.734V164.255M141.431 121.749L150.001 125.433L145.826 162.864L118.708 164.255M141.431 121.749L86.2618 112.818M118.708 164.255L126.361 138.93M166.016 11.5534V4.51699H160.59L155.72 11.5534L138.744 26.7801L13.5142 86.3339M166.016 11.5534L157.528 22.1883M166.016 11.5534V16.066L159.477 27.8932M13.5142 86.3339V97.3263L19.4975 101.361V133.782L0.852081 134.895V137.818L44.4043 150.618M13.5142 86.3339L34.9425 90.5081M157.528 22.1883L34.9425 90.5081M157.528 22.1883L159.477 27.8932M159.477 27.8932L146.258 35.407L34.9425 100.249M44.4043 150.618V146.166L26.3155 136.009V101.361L34.9425 100.249M44.4043 150.618L69.3111 128.077M34.9425 90.5081V100.249M69.3111 128.077L34.9425 121.677C34.2931 117.409 34.1355 108.123 38.6994 105.119L86.2618 112.818M69.3111 128.077L147.928 142.936M86.2618 112.818L133.328 71.4646M122.681 69.9976L120.133 72.763H115.09C113.535 72.257 111.534 66.3009 114.744 53.7639" stroke="#EA5C4E" stroke-width="0.876039"/>
<path d="M171.594 15.0671L169.967 21.6284L194.206 7.42126" stroke="#EA5C4E" stroke-width="0.876039"/>
<path d="M182.23 177.281L183.693 42.2262L202.657 17.2736L203.032 10.1469" stroke="#EA5C4E" stroke-width="0.876039"/>
</g>
<defs>
<clipPath id="clip0_1_111">
<rect width="204.993" height="181.34" fill="white" transform="translate(0 0.319946)"/>
</clipPath>
</defs>
</svg>
