<svg width="191" height="134" viewBox="0 0 191 134" fill="none" xmlns="http://www.w3.org/2000/svg">
<g clip-path="url(#clip0_1_64)">
<path d="M17.8606 132.848L3.24188 122.609L29.1656 97.724M17.8606 132.848L44.5342 105.485M17.8606 132.848L46.2986 124.683L158.999 54.3773L172.523 40.0765M29.1656 97.724L44.5342 105.485M29.1656 97.724L146.084 31.8053M44.5342 105.485L158.554 38.4188M146.084 31.8053L149.868 20.6427C153.595 13.3313 158.021 19.3231 159.768 23.233L158.554 38.4188M146.084 31.8053L158.554 38.4188" stroke="#EA5C4E" stroke-width="0.809844"/>
<path d="M159.781 54.3844C163.234 56.0469 166.722 56.1815 169.747 54.7688C172.771 53.3561 175.178 50.4686 176.621 46.5193C178.065 42.5699 178.472 37.761 177.785 32.7805C177.098 27.7998 175.35 22.9026 172.794 18.7892C170.237 14.6758 167.001 11.5569 163.55 9.8787C160.099 8.20044 156.609 8.04877 153.578 9.44541C150.548 10.8419 148.133 13.7153 146.679 17.6544C145.224 21.5936 144.805 26.3966 145.481 31.3767L146.014 31.4012C145.36 26.5854 145.766 21.9408 147.173 18.1317C148.579 14.3225 150.914 11.544 153.844 10.1934C156.774 8.84296 160.15 8.98962 163.487 10.6125C166.825 12.2354 169.953 15.2513 172.426 19.229C174.898 23.2066 176.588 27.9423 177.253 32.7586C177.917 37.5749 177.523 42.225 176.127 46.0441C174.731 49.8631 172.404 52.6553 169.479 54.0214C166.555 55.3875 163.181 55.2574 159.843 53.6497L159.781 54.3844Z" fill="#EA5C4E"/>
<path d="M159.937 54.0629C163.962 56.0694 168.167 56.412 171.926 55.0397C175.685 53.6673 178.797 50.6536 180.797 46.4479C182.797 42.2422 183.579 37.0699 183.025 31.7027C182.47 26.3356 180.611 21.061 177.723 16.6659C174.834 12.2708 171.073 8.99074 166.999 7.31493C162.924 5.63912 158.756 5.65738 155.116 7.36701C151.476 9.07663 148.558 12.386 146.799 16.8015C145.04 21.2169 144.531 26.5018 145.352 31.8678L145.831 31.8448C145.031 26.6161 145.526 21.4662 147.24 17.1637C148.955 12.8611 151.798 9.63641 155.346 7.97048C158.893 6.30457 162.954 6.28677 166.924 7.91973C170.894 9.55272 174.559 12.7489 177.373 17.0316C180.188 21.3143 182 26.454 182.54 31.6839C183.08 36.9139 182.319 41.9539 180.37 46.052C178.421 50.1502 175.389 53.0869 171.726 54.4243C168.062 55.7615 163.965 55.4276 160.043 53.4724L159.937 54.0629Z" fill="#EA5C4E"/>
</g>
<defs>
<clipPath id="clip0_1_64">
<rect width="190.972" height="133.32" fill="white" transform="translate(0 0.330078)"/>
</clipPath>
</defs>
</svg>
