<svg width="181" height="113" viewBox="0 0 181 113" fill="none" xmlns="http://www.w3.org/2000/svg">
<g clip-path="url(#clip0_1_193)">
<path d="M104.431 111.591V99.4905M104.431 111.591L179.649 45.192C180.328 44.5928 180.716 43.731 180.716 42.8256V35.0428M104.431 111.591L4.12846 45.1564C3.50127 44.7409 3.04305 44.1152 2.83638 43.3919L0.5261 35.3059M104.431 99.4905L118.636 82.9182M104.431 99.4905L0.5261 35.3059M180.716 35.0428L170.721 39.5147M180.716 35.0428L82.3183 0.941917C81.6475 0.709472 80.9184 0.709884 80.2476 0.943085L75.2328 2.68745M0.5261 35.3059L16.3092 24.7838M118.636 82.9182L170.721 39.5147M118.636 82.9182L16.3092 24.7838M170.721 39.5147L75.2328 2.68745M16.3092 24.7838L75.2328 2.68745" stroke="#EA5C4E" stroke-width="0.526103"/>
<path d="M82.1726 17.4787C82.2331 18.159 81.9758 18.8566 81.4161 19.5436C80.8547 20.2319 80.0003 20.895 78.9034 21.4913C76.7111 22.6836 73.5976 23.5842 70.0838 23.8974C66.57 24.2106 63.3465 23.8748 60.978 23.0891C59.7932 22.6961 58.8347 22.1946 58.1607 21.6163C57.4878 21.0393 57.1111 20.3981 57.0506 19.7178C56.9901 19.0375 57.2474 18.3399 57.8072 17.6529C58.3685 16.9646 59.2229 16.3015 60.3198 15.7052C62.5121 14.5129 65.6256 13.6123 69.1394 13.2991C72.6533 12.9859 75.8767 13.3217 78.2452 14.1075C79.43 14.5005 80.3886 15.002 81.0625 15.5802C81.7354 16.1573 82.1121 16.7984 82.1726 17.4787Z" stroke="#EA5C4E" stroke-width="0.526103"/>
<path d="M138.655 41.6547C138.692 43.6199 137.169 45.496 134.524 46.918C131.892 48.3326 128.218 49.2547 124.127 49.3337C120.036 49.4126 116.329 48.6328 113.645 47.3208C110.947 46.0019 109.352 44.1859 109.314 42.2207C109.276 40.2555 110.799 38.3794 113.445 36.9574C116.077 35.5429 119.751 34.6207 123.842 34.5418C127.933 34.4629 131.639 35.2426 134.324 36.5547C137.022 37.8735 138.617 39.6895 138.655 41.6547Z" stroke="#EA5C4E" stroke-width="0.526103"/>
<path d="M115.217 47.9323C117.737 46.9893 120.735 46.3918 123.855 46.378C126.975 46.3641 130.024 46.8516 132.576 47.7721" stroke="#EA5C4E" stroke-width="0.526103"/>
</g>
<defs>
<clipPath id="clip0_1_193">
<rect width="180.98" height="112.06" fill="white" transform="translate(0 0.320007)"/>
</clipPath>
</defs>
</svg>
