<svg width="236" height="178" viewBox="0 0 236 178" fill="none" xmlns="http://www.w3.org/2000/svg">
<g clip-path="url(#clip0_1_103)">
<path d="M40.1815 60.1928C32.5079 46.7966 59.6257 31.1147 63.1646 30.3572C66.7035 29.5999 67.4107 32.7209 67.6077 33.2313C67.8163 33.7723 68.3658 37.1444 67.0768 38.3979L51.4769 49.0742C48.8677 51.2555 45.513 56.4864 52.969 59.9597C60.425 63.433 67.9515 58.1151 67.9515 58.1151C67.9515 58.1151 84.1218 46.0277 85.5094 45.3195C86.8971 44.6112 86.7862 43.8715 86.5573 43.5901L85.1346 42.3804C73.752 34.2817 49.6358 17.3074 44.2313 14.1996C38.8268 11.0918 34.8989 12.1772 33.6105 13.1084L16.6379 22.0967C14.4236 23.255 11.1563 26.5032 15.8023 30.2291C20.4483 33.9551 26.3459 31.4414 28.714 29.7187L46.0727 19.8032C47.2774 19.0569 50.0885 18.3595 51.6953 21.5412C53.3022 24.7229 51.9847 26.5664 51.1251 27.0904L33.121 38.5832C28.248 41.4666 16.4508 44.9921 8.24472 36.0273C0.0386522 27.0625 6.73285 18.114 11.1057 14.7602C16.6247 11.2343 29.047 4.07299 34.5837 3.63616C40.1204 3.19934 46.3093 5.25995 48.7116 6.34485C60.2187 13.2316 85.0254 28.7557 92.1956 35.7576C99.3655 42.7596 96.4239 49.1802 94.0576 51.5154L67.8012 70.8621C62.5281 73.8149 47.855 73.589 40.1815 60.1928Z" stroke="#EA5C4E" stroke-width="0.940106"/>
<path d="M5.58739 132.497V139.946L57.2125 175.594M5.58739 132.497L32.7305 119.727L39.2946 124.516V121.856M5.58739 132.497L57.2125 166.548M57.2125 175.594L234.973 81.4192V74.5024M57.2125 175.594V166.548M39.2946 121.856L51.3581 130.901M39.2946 121.856L34.3271 118.131C35.6045 117.706 35.9238 110.151 35.9238 106.426M57.2125 166.548L234.973 74.5024M234.973 74.5024L182.284 53.752L172.704 56.9444V51.6238M172.704 51.6238C172.349 55.7029 172.704 64.2868 176.962 65.9895L166.849 71.31M172.704 51.6238L160.463 56.9444M172.704 51.6238L166.849 50.5597L155.673 55.8803M166.849 71.31C164.189 69.7139 159.185 64.6061 160.463 56.9444M166.849 71.31L158.068 67.0961M160.463 56.9444L158.068 56.4123L155.673 55.8803M155.673 55.8803C156.028 59.0726 156.099 65.351 153.544 64.9253L158.068 67.0961M158.068 67.0961C158.068 67.9134 158.068 69.5365 158.068 70.2459L151.415 65.9895L59.3414 108.022L57.2125 99.5094M57.2125 99.5094C58.8092 106.426 63.0669 120.579 67.3247 121.856L51.3581 130.901M57.2125 99.5094L40.1816 109.086M57.2125 99.5094L51.8904 98.9773L35.9238 106.426M51.3581 130.901C47.4552 127.177 39.7558 117.599 40.1816 109.086M40.1816 109.086L35.9238 106.426" stroke="#EA5C4E" stroke-width="0.940106"/>
</g>
<defs>
<clipPath id="clip0_1_103">
<rect width="235.967" height="176.74" fill="white" transform="translate(0 0.330078)"/>
</clipPath>
</defs>
</svg>
