<svg width="206" height="169" viewBox="0 0 206 169" fill="none" xmlns="http://www.w3.org/2000/svg">
<g clip-path="url(#clip0_1_167)">
<path d="M6.6174 73.9684L181.553 1.58851C182.766 1.08675 184.12 1.04638 185.361 1.47502L200.669 6.76486M6.6174 73.9684L25.9538 83.9674M6.6174 73.9684L5.54399 82.6449C5.36478 84.0936 5.78293 85.5528 6.70222 86.6868L12.7701 94.1712C13.4018 94.95 13.8026 95.8908 13.9273 96.8863L17.4763 125.205M200.669 6.76486V16.2982C200.669 18.4712 199.359 20.4301 197.351 21.2609L188.367 24.9788M200.669 6.76486L25.9538 83.9674M25.9538 83.9674L28.2072 97.4941M17.4763 125.205L17.8315 130.42C18.0935 134.268 14.3353 137.13 10.6959 135.853L2.34083 132.924M17.4763 125.205L2.34083 132.924M188.367 24.9788L28.2072 97.4941M188.367 24.9788V52.73C188.367 54.2477 189.009 55.6945 190.135 56.7127L203.836 69.1099M28.2072 97.4941L26.7751 97.1244C23.3439 96.2382 20.0466 98.8502 20.2641 102.388C20.7899 110.932 22.2023 125.797 25.9538 138.55C29.1372 149.371 45.7335 159.735 45.7335 159.735M45.7335 159.735L203.836 69.1099M45.7335 159.735C45.7335 159.735 45.7335 164.034 45.7335 167.482M203.836 69.1099L204.155 70.159C204.879 72.535 203.939 75.0613 201.798 76.3184C183.342 87.1496 98.019 137.202 45.7335 167.482M45.7335 167.482C31.0463 157.027 10.7365 142.573 3.71298 137.575C2.23803 136.525 1.67388 134.607 2.34083 132.924" stroke="#EA5C4E" stroke-width="0.89516"/>
<path d="M65.9568 104.06C64.9741 106.598 63.3804 108.602 61.6198 109.8C59.8573 110.998 57.9691 111.365 56.3415 110.734C54.7139 110.104 53.5651 108.562 53.069 106.489C52.5734 104.418 52.7449 101.863 53.7275 99.3256C54.7102 96.7869 56.304 94.7826 58.0647 93.5849C59.8271 92.3872 61.7153 92.0202 63.3429 92.6504C64.9705 93.2805 66.1192 94.8229 66.6154 96.8961C67.1111 98.9666 66.9395 101.521 65.9568 104.06Z" stroke="#EA5C4E" stroke-width="0.89516"/>
<path d="M65.9568 104.06C64.9741 106.598 63.3804 108.602 61.6198 109.8C59.8573 110.998 57.9691 111.365 56.3415 110.734C54.7139 110.104 53.5651 108.562 53.069 106.489C52.5734 104.418 52.7449 101.863 53.7275 99.3256C54.7102 96.7869 56.304 94.7826 58.0647 93.5849C59.8271 92.3872 61.7153 92.0202 63.3429 92.6504C64.9705 93.2805 66.1192 94.8229 66.6154 96.8961C67.1111 98.9666 66.9395 101.521 65.9568 104.06Z" stroke="#EA5C4E" stroke-width="0.89516"/>
<path d="M65.9568 104.06C64.9741 106.598 63.3804 108.602 61.6198 109.8C59.8573 110.998 57.9691 111.365 56.3415 110.734C54.7139 110.104 53.5651 108.562 53.069 106.489C52.5734 104.418 52.7449 101.863 53.7275 99.3256C54.7102 96.7869 56.304 94.7826 58.0647 93.5849C59.8271 92.3872 61.7153 92.0202 63.3429 92.6504C64.9705 93.2805 66.1192 94.8229 66.6154 96.8961C67.1111 98.9666 66.9395 101.521 65.9568 104.06Z" stroke="#EA5C4E" stroke-width="0.89516"/>
<path d="M52.93 105.216C54.888 105.974 58.7247 103.92 60.7473 98.6954C62.7699 93.4712 62.8691 92.1043 60.7396 92.4203" stroke="#EA5C4E" stroke-width="0.89516"/>
<path d="M52.93 105.216C54.888 105.974 58.7247 103.92 60.7473 98.6954C62.7699 93.4712 62.8691 92.1043 60.7396 92.4203" stroke="#EA5C4E" stroke-width="0.89516"/>
<path d="M52.93 105.216C54.888 105.974 58.7247 103.92 60.7473 98.6954C62.7699 93.4712 62.8691 92.1043 60.7396 92.4203" stroke="#EA5C4E" stroke-width="0.89516"/>
<path d="M133.801 70.0838C132.96 72.2571 131.596 73.9707 130.093 74.9924C128.589 76.0155 126.986 76.323 125.611 75.7905C124.235 75.2579 123.257 73.9514 122.834 72.1818C122.41 70.4144 122.556 68.2293 123.398 66.0561C124.239 63.8828 125.602 62.1692 127.105 61.1474C128.61 60.1244 130.213 59.8169 131.588 60.3494C132.963 60.8819 133.942 62.1885 134.365 63.9581C134.789 65.7254 134.643 67.9106 133.801 70.0838Z" stroke="#EA5C4E" stroke-width="0.89516"/>
<path d="M133.801 70.0838C132.96 72.2571 131.596 73.9707 130.093 74.9924C128.589 76.0155 126.986 76.323 125.611 75.7905C124.235 75.2579 123.257 73.9514 122.834 72.1818C122.41 70.4144 122.556 68.2293 123.398 66.0561C124.239 63.8828 125.602 62.1692 127.105 61.1474C128.61 60.1244 130.213 59.8169 131.588 60.3494C132.963 60.8819 133.942 62.1885 134.365 63.9581C134.789 65.7254 134.643 67.9106 133.801 70.0838Z" stroke="#EA5C4E" stroke-width="0.89516"/>
<path d="M133.801 70.0838C132.96 72.2571 131.596 73.9707 130.093 74.9924C128.589 76.0155 126.986 76.323 125.611 75.7905C124.235 75.2579 123.257 73.9514 122.834 72.1818C122.41 70.4144 122.556 68.2293 123.398 66.0561C124.239 63.8828 125.602 62.1692 127.105 61.1474C128.61 60.1244 130.213 59.8169 131.588 60.3494C132.963 60.8819 133.942 62.1885 134.365 63.9581C134.789 65.7254 134.643 67.9106 133.801 70.0838Z" stroke="#EA5C4E" stroke-width="0.89516"/>
<path d="M122.654 71.101C124.338 71.7531 127.638 69.9861 129.378 65.4917C131.118 60.9972 131.203 59.8218 129.372 60.0932" stroke="#EA5C4E" stroke-width="0.89516"/>
<path d="M122.654 71.101C124.338 71.7531 127.638 69.9861 129.378 65.4917C131.118 60.9972 131.203 59.8218 129.372 60.0932" stroke="#EA5C4E" stroke-width="0.89516"/>
<path d="M122.654 71.101C124.338 71.7531 127.638 69.9861 129.378 65.4917C131.118 60.9972 131.203 59.8218 129.372 60.0932" stroke="#EA5C4E" stroke-width="0.89516"/>
<path d="M165.896 53.6531C165.135 55.6192 163.903 57.1677 162.546 58.09C161.188 59.0135 159.747 59.2872 158.514 58.8101C157.282 58.3329 156.401 57.1605 156.018 55.563C155.637 53.9677 155.768 51.9925 156.529 50.0264C157.29 48.0603 158.523 46.5118 159.88 45.5896C161.238 44.666 162.679 44.3924 163.912 44.8695C165.143 45.3466 166.024 46.5191 166.407 48.1166C166.789 49.7119 166.658 51.687 165.896 53.6531Z" stroke="#EA5C4E" stroke-width="0.89516"/>
<path d="M165.896 53.6531C165.135 55.6192 163.903 57.1677 162.546 58.09C161.188 59.0135 159.747 59.2872 158.514 58.8101C157.282 58.3329 156.401 57.1605 156.018 55.563C155.637 53.9677 155.768 51.9925 156.529 50.0264C157.29 48.0603 158.523 46.5118 159.88 45.5896C161.238 44.666 162.679 44.3924 163.912 44.8695C165.143 45.3466 166.024 46.5191 166.407 48.1166C166.789 49.7119 166.658 51.687 165.896 53.6531Z" stroke="#EA5C4E" stroke-width="0.89516"/>
<path d="M165.896 53.6531C165.135 55.6192 163.903 57.1677 162.546 58.09C161.188 59.0135 159.747 59.2872 158.514 58.8101C157.282 58.3329 156.401 57.1605 156.018 55.563C155.637 53.9677 155.768 51.9925 156.529 50.0264C157.29 48.0603 158.523 46.5118 159.88 45.5896C161.238 44.666 162.679 44.3924 163.912 44.8695C165.143 45.3466 166.024 46.5191 166.407 48.1166C166.789 49.7119 166.658 51.687 165.896 53.6531Z" stroke="#EA5C4E" stroke-width="0.89516"/>
<path d="M155.815 54.5915C157.344 55.1834 160.34 53.5793 161.92 49.4993C163.499 45.4191 163.577 44.3521 161.914 44.5984" stroke="#EA5C4E" stroke-width="0.89516"/>
<path d="M155.815 54.5915C157.344 55.1834 160.34 53.5793 161.92 49.4993C163.499 45.4191 163.577 44.3521 161.914 44.5984" stroke="#EA5C4E" stroke-width="0.89516"/>
<path d="M155.815 54.5915C157.344 55.1834 160.34 53.5793 161.92 49.4993C163.499 45.4191 163.577 44.3521 161.914 44.5984" stroke="#EA5C4E" stroke-width="0.89516"/>
</g>
<defs>
<clipPath id="clip0_1_167">
<rect width="204.992" height="168.29" fill="white" transform="translate(0.98999 0.320007)"/>
</clipPath>
</defs>
</svg>
