<svg width="230" height="132" viewBox="0 0 230 132" fill="none" xmlns="http://www.w3.org/2000/svg">
<g clip-path="url(#clip0_1_123)">
<path d="M100.061 130.257L98.8096 106.851M100.061 130.257L106.135 126.205V117.393L216.636 56.7684M100.061 130.257L3.94305 72.802L2.15302 53.5592M98.8096 106.851L228.881 38.064M98.8096 106.851L90.624 103.27M216.636 56.7684L223.7 52.8936V59.8617M216.636 56.7684L223.7 59.8617M2.15302 53.5592L7.67226 56.5426M2.15302 53.5592L133.005 1.75024L138.269 3.06637M228.881 38.064L227.988 57.1816L223.7 59.8617M228.881 38.064L222.499 34.8921M90.624 103.27L89.7067 106.851L86.3707 104.854M90.624 103.27L86.3707 104.854M90.624 103.27L222.499 34.8921M222.499 34.8921L217.714 36.8064L216.636 31.9009M7.67226 56.5426L8.14304 64.3227M7.67226 56.5426L138.269 3.06637M138.269 3.06637V6.29679L142.576 4.7414M8.14304 64.3227L10.645 66.4912V63.73M8.14304 64.3227L10.645 63.73M10.645 63.73V58.9852M10.645 58.9852L17.3168 61.8208M10.645 58.9852L142.576 4.7414M17.3168 61.8208V70.1606M17.3168 61.8208L148.439 6.29679M142.576 4.7414L148.439 6.29679M17.3168 70.1606L24.6559 74.8309V70.1606M17.3168 70.1606H24.6559M148.439 6.29679L149.037 13.7148L157.651 10.4844M24.6559 70.1606V66.4912M24.6559 66.4912L31.7448 70.1606M24.6559 66.4912L157.651 10.4844M31.7448 70.1606V74.8309M31.7448 70.1606L163.156 12.3987M157.651 10.4844L163.156 12.3987M31.7448 74.8309L34.5803 76.3322V74.8309M31.7448 74.8309H34.5803M163.156 12.3987V15.5095L169.138 13.7148M34.5803 74.8309V71.6618M34.5803 71.6618L43.0036 75.665M34.5803 71.6618L169.138 13.7148M43.0036 75.665L43.5874 86.0063M43.0036 75.665L174.043 15.5095M169.138 13.7148L174.043 15.5095M43.5874 86.0063L50.2592 90.2596V79.9183L58.182 84.4217M43.5874 86.0063L49.7588 83.2542M174.043 15.5095V22.3292L183.256 19.2185M58.182 84.4217V90.2596M58.182 84.4217L189.238 21.3721M58.182 90.2596L61.6014 92.2612L61.9719 88.8733M58.182 90.2596L61.9719 88.8733M189.238 21.3721L183.256 19.2185M189.238 21.3721V25.9187L194.981 24.2436M61.9719 88.8733L62.1851 86.9238M62.1851 86.9238L70.108 91.0102M62.1851 86.9238L194.981 24.2436M70.108 91.0102L70.942 101.185M70.108 91.0102L200.604 25.9187M194.981 24.2436L200.604 25.9187M70.942 101.185L77.8641 105.522V98.0991M70.942 101.185L77.8641 98.0991M200.604 25.9187V33.9348L209.338 29.8669M77.8641 98.0991V95.8473L86.3707 100.684M86.3707 100.684V104.854M86.3707 100.684L216.636 31.9009M216.636 31.9009L209.338 29.8669M183.256 19.2185L49.7588 79.9183M209.338 29.8669L77.8641 95.0595" stroke="#EA5C4E" stroke-width="0.978582"/>
</g>
<defs>
<clipPath id="clip0_1_123">
<rect width="228.988" height="131.13" fill="white" transform="translate(0.98999 0.329956)"/>
</clipPath>
</defs>
</svg>
