<svg width="143" height="51" viewBox="0 0 143 51" fill="none" xmlns="http://www.w3.org/2000/svg">
<rect width="143" height="51" fill="#F5F5F5"/>
<g id="bprus.ru by html.to.design &#226;&#157;&#164;&#239;&#184;&#143; FREE version - 11/09/2023, 11:34:59 GMT+3">
<rect width="1920" height="7674.83" transform="translate(-365 -24.5)" fill="white"/>
<g id="div#wrapper" clip-path="url(#clip0_0_1)">
<g id="div.row">
<rect width="1920" height="800" transform="translate(-365 -24.5)" fill="#EFF3F8"/>
<g id="Header">
<g id="div.row_2">
<g id="div.header__logo">
<g id="Link">
<g id="logo.svg">
<g id="logo.svg_2" clip-path="url(#clip1_0_1)">
<path id="Vector" fill-rule="evenodd" clip-rule="evenodd" d="M75.3739 0.731991C48.7799 2.38299 23.3109 16.866 6.64594 37.302C4.58694 39.827 3.03894 42.217 1.22294 44.877C-2.24306 49.953 2.52894 51.647 4.78594 48.453C10.5359 40.315 9.46594 41.403 16.3959 33.835C24.4509 25.04 36.6899 16.971 47.6909 12.446C75.1409 1.15599 107.016 2.65199 132.368 18.429C133.996 19.443 139.113 23.092 140.718 22.913C142.59 22.703 143.4 20.499 142.306 19.003C141.786 18.293 139.309 16.811 138.425 16.226C119.909 3.96899 97.3769 -0.634009 75.3739 0.731991Z" fill="#52C000"/>
<path id="Vector_2" fill-rule="evenodd" clip-rule="evenodd" d="M79.878 9.495C63.212 10.664 45.02 17.263 32.023 28.17C31.011 29.019 30.175 29.626 30.424 31.129C30.662 32.564 31.797 33.273 33.21 33.099C34.567 32.931 37.557 30.239 38.87 29.323C54.368 18.513 71.59 13.397 90.728 14.396C105.328 15.158 121.095 20.465 132.958 29.036C134.529 30.172 137.039 32.706 139.044 32.248C140.419 31.934 141.123 30.678 140.832 29.317C140.587 28.172 139.407 27.471 138.525 26.776C130.875 20.746 122.723 16.844 113.542 13.758C102.103 9.913 91.973 8.646 79.878 9.495Z" fill="#353B86"/>
<path id="Vector_3" fill-rule="evenodd" clip-rule="evenodd" d="M106.761 36.34C106.677 33.5978 106.699 30.8535 106.826 28.113C106.917 26.333 107.578 26.142 109.272 26.23C114.238 26.488 114.117 32.302 112.997 34.247C111.814 36.301 108.949 36.669 106.761 36.34ZM119.719 45.393L113.963 37.44C120.008 35.42 120.543 28.037 116.859 25.673C113.302 23.39 103.56 24.003 99.079 23.983L99.141 25.782C101.359 26.147 101.56 25.499 101.596 29.231C101.627 32.526 101.832 45.272 101.525 46.851L99.125 47.22L99.099 49.657L108.851 49.587L108.855 47.197L107.1 46.851C106.462 46.013 106.743 40.169 106.815 38.646L109.331 38.571L115.855 49.651L122.692 49.653L122.679 47.037C120.83 47.034 120.754 46.765 119.719 45.393ZM61.017 37.176C70.265 36.268 69.382 46.877 63.504 47.314C61.914 47.432 61.031 47.505 60.934 45.764C60.826 43.857 60.722 38.905 61.017 37.176ZM60.953 34.809C60.785 33.255 60.796 29.159 60.956 27.569C61.19 25.251 64.696 26.167 65.803 27.356C67.036 28.679 67.401 31.486 66.456 33.052C65.454 34.712 62.662 34.996 60.953 34.81V34.809ZM71.733 32.079C72.713 29.674 72.02 26.832 69.868 25.489C67.413 23.957 64.939 24.054 62.09 24.017C59.65 23.985 55.392 23.763 53.127 24.063L53.192 25.83C56.084 26.085 55.674 26.249 55.705 29.231C55.725 31.189 55.722 33.147 55.729 35.105C55.777 48.847 56.469 46.735 53.139 47.089L53.133 49.611C56.023 49.868 60.213 49.677 63.191 49.591C66.454 49.495 68.687 49.753 71.1 47.421C74.06 44.561 73.965 39.587 70.066 37.411C69.566 37.133 68.816 36.84 68.245 36.658C67.902 36.549 67.568 36.498 67.223 36.4C66.657 36.237 66.823 36.336 66.471 36.023C67.228 35.507 68.501 35.146 69.523 34.463C70.461 33.836 71.284 33.18 71.733 32.079ZM83.99 36.347C83.887 34.124 83.807 29.789 84.03 27.652C84.29 25.175 88.815 26.354 90.117 27.638C92.851 30.334 91.597 37.368 83.989 36.348L83.99 36.347ZM93.8 36.897C96.126 34.904 97.118 31.105 95.883 28.118C94.478 24.718 91.427 24.176 87.973 24.088C84.073 23.988 80.125 24.004 76.207 23.983L76.289 25.861C77.281 25.862 77.838 25.733 78.467 26.458C78.887 27.175 78.727 41.219 78.714 43.918C78.703 46.51 79.138 47.203 76.227 47.262L76.304 49.553L86.908 49.653L86.871 47.253C83.265 47.251 83.97 47.221 83.97 38.933C87.261 38.617 91.066 39.243 93.8 36.897Z" fill="#353B86"/>
</g>
</g>
</g>
</g>
</g>
</g>
</g>
</g>
</g>
<defs>
<clipPath id="clip0_0_1">
<rect width="1920" height="7674.82" fill="white" transform="translate(-365 -24.5)"/>
</clipPath>
<clipPath id="clip1_0_1">
<rect width="143" height="50" fill="white" transform="translate(0 0.5)"/>
</clipPath>
</defs>
</svg>
