<svg width="200" height="126" viewBox="0 0 200 126" fill="none" xmlns="http://www.w3.org/2000/svg">
<g clip-path="url(#clip0_1_135)">
<path d="M0.714279 86.4656L5.44881 91.2006V87.8863M0.714279 86.4656L187.255 2.19111L190.072 3.13802M0.714279 86.4656V92.6206L4.50191 96.8821L4.02846 116.767L12.0771 124.342M5.44881 87.8863L10.6568 93.0942M5.44881 87.8863L190.072 3.13802M190.072 3.13802L195.304 0.770752L199.091 3.13802M12.0771 124.342L195.304 30.1249L197.198 23.4965M12.0771 124.342V116.767M10.6568 93.0942L199.091 3.13802M10.6568 93.0942V97.8285V103.037M199.091 3.13802V10.2398L193.323 13.0805M10.6568 103.037L7.81606 101.143V112.979M10.6568 103.037L193.323 13.0805M193.323 13.0805L192.936 19.7089M197.198 23.4965L192.936 19.7089M197.198 23.4965L12.0771 116.767M12.0771 116.767L7.81606 112.979M192.936 19.7089L7.81606 112.979" stroke="#EA5C4E" stroke-width="0.714286"/>
<path d="M28.3453 94.1078C29.1436 94.4721 29.8106 95.0021 30.2794 95.6442C30.7481 96.2864 31.0019 97.0185 31.0153 97.7664C31.0287 98.5142 30.8014 99.2521 30.3559 99.9049C29.9105 100.559 29.2628 101.104 28.4779 101.488C27.693 101.871 26.7985 102.079 25.8844 102.09C24.9704 102.101 24.0688 101.914 23.2704 101.55C22.4721 101.186 21.8051 100.656 21.3364 100.014C20.8677 99.3714 20.6139 98.6392 20.6004 97.8914L21.6011 97.8799C21.6119 98.4835 21.8169 99.0749 22.1956 99.5935C22.5742 100.113 23.1131 100.541 23.758 100.835C24.4029 101.129 25.1313 101.28 25.8697 101.271C26.6081 101.262 27.3308 101.094 27.9649 100.784C28.5989 100.475 29.1222 100.034 29.482 99.5064C29.8419 98.9785 30.0256 98.3828 30.0147 97.7785C30.0039 97.1742 29.7988 96.5828 29.4201 96.0642C29.0415 95.5456 28.5026 95.1171 27.8577 94.8228L28.3453 94.1078Z" fill="#EA5C4E"/>
<path d="M25.0824 95.5835C25.6268 95.7006 26.1076 95.8978 26.4766 96.1549C26.8455 96.4114 27.0895 96.7199 27.1841 97.0478C27.2787 97.3756 27.2206 97.7121 27.0155 98.0235C26.8104 98.3342 26.4656 98.6092 26.0158 98.8199C25.566 99.0306 25.027 99.1699 24.453 99.2242C23.8789 99.2785 23.2901 99.2449 22.7457 99.1278C22.2014 99.0106 21.7205 98.8135 21.3516 98.5564C20.9826 98.2992 20.7386 97.9914 20.644 97.6635L21.6585 97.5678C21.7237 97.7942 21.8921 98.0064 22.1465 98.1842C22.401 98.3614 22.7326 98.4971 23.1082 98.5778C23.4837 98.6585 23.8899 98.6821 24.2858 98.6442C24.6817 98.6071 25.0535 98.5114 25.3638 98.3656C25.6741 98.2199 25.9119 98.0306 26.0534 97.8164C26.1948 97.6014 26.2349 97.3692 26.1696 97.1435C26.1044 96.9171 25.9361 96.7042 25.6816 96.5271C25.4271 96.3499 25.0954 96.2142 24.7199 96.1328L25.0824 95.5835Z" fill="#EA5C4E"/>
<path d="M67.6541 74.8999C68.3073 75.1978 68.8531 75.6313 69.2365 76.157C69.62 76.682 69.8277 77.2813 69.8387 77.8928C69.8497 78.5049 69.6636 79.1085 69.2992 79.6428C68.9347 80.177 68.4048 80.6242 67.7626 80.9378C67.1204 81.2513 66.3886 81.4213 65.6407 81.4306C64.8928 81.4392 64.1552 81.287 63.5019 80.9892C62.8488 80.6906 62.303 80.257 61.9196 79.7313C61.5361 79.2063 61.3284 78.6078 61.3174 77.9956L62.1361 77.9856C62.145 78.4799 62.3127 78.9635 62.6225 79.3885C62.9323 79.8128 63.3732 80.1628 63.9009 80.4042C64.4286 80.6449 65.0244 80.7678 65.6287 80.7606C66.2329 80.7535 66.8241 80.6156 67.3429 80.3628C67.8617 80.1092 68.2898 79.7485 68.5842 79.3163C68.8786 78.8849 69.0289 78.397 69.02 77.9028C69.0112 77.4085 68.8434 76.9249 68.5336 76.5006C68.2238 76.0756 67.7829 75.7256 67.2552 75.4849L67.6541 74.8999Z" fill="#EA5C4E"/>
<path d="M64.9844 76.1071C65.4299 76.2035 65.8233 76.3642 66.1252 76.5749C66.427 76.7849 66.6267 77.0371 66.7041 77.3056C66.7815 77.5735 66.7339 77.8492 66.5661 78.1035C66.3983 78.3585 66.1162 78.5828 65.7482 78.7556C65.3802 78.9278 64.9392 79.0421 64.4695 79.0863C63.9999 79.1306 63.5181 79.1035 63.0727 79.0078C62.6272 78.9113 62.2338 78.7506 61.9319 78.5399C61.6302 78.3299 61.4304 78.0778 61.3531 77.8092L62.1831 77.7313C62.2364 77.9163 62.3742 78.0899 62.5824 78.2349C62.7906 78.3799 63.062 78.4913 63.3692 78.5578C63.6764 78.6235 64.0088 78.6428 64.3327 78.6121C64.6567 78.5813 64.9609 78.5028 65.2147 78.3835C65.4686 78.2649 65.6632 78.1099 65.7789 77.9342C65.8947 77.7585 65.9274 77.5685 65.8741 77.3835C65.8207 77.1985 65.6829 77.0249 65.4747 76.8799C65.2665 76.7342 64.9952 76.6235 64.6879 76.5571L64.9844 76.1071Z" fill="#EA5C4E"/>
<path d="M104.584 57.0811C105.236 57.3792 105.782 57.8128 106.166 58.3383C106.549 58.8637 106.757 59.4624 106.768 60.0743C106.779 60.6863 106.593 61.2898 106.229 61.8242C105.864 62.3586 105.334 62.8052 104.692 63.1189C104.05 63.4327 103.318 63.6026 102.57 63.6116C101.822 63.6206 101.084 63.4683 100.431 63.1702C99.7778 62.872 99.2321 62.4384 98.8493 61.913C98.4657 61.3876 98.2578 60.7888 98.2471 60.1768L99.0657 60.167C99.0743 60.6613 99.2421 61.1451 99.5521 61.5696C99.8614 61.994 100.303 62.3443 100.83 62.5851C101.358 62.8261 101.954 62.9491 102.558 62.9418C103.162 62.9345 103.754 62.7972 104.272 62.5438C104.791 62.2903 105.219 61.9296 105.514 61.4978C105.808 61.0661 105.959 60.5786 105.949 60.0842C105.941 59.5898 105.773 59.1061 105.463 58.6817C105.153 58.2572 104.712 57.9069 104.184 57.6661L104.584 57.0811Z" fill="#EA5C4E"/>
<path d="M101.914 58.2887C102.359 58.3846 102.753 58.5458 103.054 58.7561C103.356 58.9663 103.556 59.2183 103.634 59.4868C103.711 59.7551 103.664 60.0304 103.496 60.2849C103.328 60.5395 103.046 60.7643 102.678 60.9368C102.309 61.1093 101.869 61.2233 101.399 61.2676C100.929 61.3118 100.447 61.2846 100.002 61.1887C99.5564 61.0928 99.1636 60.9316 98.8614 60.7213C98.5593 60.5111 98.36 60.2591 98.2821 59.9906L99.1121 59.9125C99.1657 60.0976 99.3036 60.2714 99.5121 60.4165C99.72 60.5616 99.9914 60.6728 100.299 60.7389C100.606 60.805 100.938 60.8238 101.262 60.7933C101.586 60.7628 101.89 60.6841 102.144 60.5651C102.398 60.4461 102.593 60.2911 102.709 60.1155C102.824 59.9399 102.857 59.7501 102.804 59.5649C102.75 59.3798 102.612 59.206 102.404 59.0609C102.196 58.9158 101.924 58.8046 101.617 58.7386L101.914 58.2887Z" fill="#EA5C4E"/>
<path d="M135.831 40.9832C136.484 41.2813 137.03 41.7149 137.413 42.2403C137.796 42.7658 138.004 43.3645 138.015 43.9764C138.026 44.5884 137.84 45.1919 137.476 45.7263C137.111 46.2607 136.581 46.7073 135.939 47.021C135.297 47.3348 134.565 47.5047 133.817 47.5137C133.069 47.5227 132.331 47.3704 131.679 47.0722C131.026 46.7741 130.479 46.3405 130.096 45.8151C129.713 45.2896 129.505 44.6909 129.494 44.0789L130.313 44.0691C130.321 44.5634 130.489 45.0472 130.799 45.4716C131.109 45.8961 131.55 46.2464 132.077 46.4872C132.605 46.7282 133.201 46.8511 133.805 46.8439C134.409 46.8366 135.001 46.6993 135.519 46.4459C136.039 46.1924 136.466 45.8317 136.761 45.3999C137.055 44.9682 137.206 44.4807 137.196 43.9863C137.188 43.4919 137.02 43.0082 136.71 42.5838C136.401 42.1593 135.959 41.809 135.432 41.5682L135.831 40.9832Z" fill="#EA5C4E"/>
<path d="M133.161 42.1908C133.606 42.2867 134 42.4479 134.301 42.6582C134.604 42.8684 134.804 43.1204 134.881 43.3888C134.958 43.6572 134.911 43.9325 134.743 44.187C134.575 44.4416 134.293 44.6664 133.925 44.8389C133.556 45.0114 133.116 45.1254 132.646 45.1697C132.176 45.2139 131.695 45.1867 131.249 45.0908C130.804 44.9949 130.411 44.8337 130.109 44.6234C129.806 44.4132 129.607 44.1612 129.53 43.8927L130.36 43.8146C130.413 43.9997 130.551 44.1735 130.759 44.3186C130.967 44.4637 131.239 44.5749 131.546 44.6409C131.853 44.7071 132.186 44.7259 132.509 44.6954C132.834 44.6649 133.137 44.5862 133.391 44.4672C133.645 44.3482 133.84 44.1932 133.956 44.0176C134.071 43.842 134.104 43.6521 134.051 43.467C133.997 43.2819 133.859 43.1081 133.651 42.963C133.443 42.8179 133.171 42.7067 132.864 42.6406L133.161 42.1908Z" fill="#EA5C4E"/>
<path d="M164.481 27.1171C165.061 27.3821 165.546 27.7675 165.887 28.2346C166.228 28.7016 166.413 29.2339 166.423 29.7778C166.432 30.3217 166.267 30.8581 165.943 31.3332C165.619 31.8083 165.148 32.2052 164.577 32.4841C164.006 32.763 163.356 32.914 162.691 32.922C162.026 32.93 161.371 32.7946 160.79 32.5296C160.209 32.2646 159.724 31.8791 159.384 31.4121C159.042 30.9451 158.858 30.4128 158.848 29.8689L159.576 29.8601C159.584 30.2996 159.733 30.7295 160.008 31.1069C160.284 31.4841 160.676 31.7955 161.144 32.0096C161.614 32.2237 162.143 32.3331 162.68 32.3266C163.217 32.3201 163.743 32.1981 164.204 31.9729C164.665 31.7475 165.046 31.4269 165.307 31.0431C165.569 30.6594 165.703 30.226 165.695 29.7866C165.687 29.3471 165.538 28.9171 165.262 28.5399C164.987 28.1626 164.595 27.8512 164.126 27.6371L164.481 27.1171Z" fill="#EA5C4E"/>
<path d="M162.108 28.1904C162.504 28.2757 162.854 28.419 163.121 28.6059C163.39 28.7929 163.567 29.0169 163.636 29.2554C163.705 29.4939 163.663 29.7386 163.514 29.9649C163.364 30.1911 163.114 30.391 162.786 30.5443C162.459 30.6976 162.067 30.7991 161.65 30.8384C161.232 30.8776 160.804 30.8535 160.409 30.7683C160.012 30.683 159.663 30.5397 159.394 30.3528C159.126 30.1659 158.949 29.9419 158.88 29.7033L159.618 29.6339C159.665 29.7984 159.787 29.9529 159.972 30.0819C160.158 30.2108 160.399 30.3096 160.672 30.3684C160.945 30.4272 161.24 30.4439 161.529 30.4168C161.816 30.3896 162.086 30.3197 162.312 30.2139C162.538 30.1081 162.711 29.9704 162.814 29.8143C162.916 29.6582 162.946 29.4894 162.899 29.3249C162.851 29.1604 162.729 29.0058 162.544 28.8769C162.359 28.7479 162.117 28.6491 161.844 28.5903L162.108 28.1904Z" fill="#EA5C4E"/>
<path d="M188.154 15.3662C188.734 15.6313 189.22 16.0167 189.561 16.4837C189.901 16.9508 190.086 17.4831 190.096 18.0269C190.106 18.5709 189.94 19.1074 189.616 19.5824C189.292 20.0574 188.821 20.4544 188.251 20.7332C187.679 21.0121 187.029 21.1631 186.364 21.1711C185.699 21.1791 185.044 21.0439 184.463 20.7788C183.883 20.5138 183.397 20.1284 183.056 19.6613C182.716 19.1942 182.531 18.662 182.521 18.1181L183.249 18.1093C183.257 18.5487 183.406 18.9787 183.681 19.356C183.957 19.7333 184.349 20.0446 184.818 20.2588C185.287 20.4729 185.816 20.5822 186.354 20.5758C186.891 20.5693 187.416 20.4473 187.877 20.222C188.339 19.9967 188.719 19.6761 188.981 19.2923C189.242 18.9085 189.376 18.4751 189.368 18.0357C189.36 17.5963 189.211 17.1664 188.936 16.789C188.66 16.4117 188.269 16.1004 187.799 15.8863L188.154 15.3662Z" fill="#EA5C4E"/>
<path d="M185.781 16.4396C186.177 16.5248 186.526 16.6681 186.795 16.855C187.063 17.0419 187.241 17.2659 187.309 17.5045C187.379 17.7431 187.336 17.9877 187.187 18.214C187.038 18.4402 186.787 18.6401 186.46 18.7934C186.133 18.9467 185.741 19.0481 185.323 19.0874C184.906 19.1268 184.477 19.1026 184.081 19.0174C183.686 18.9321 183.336 18.7889 183.068 18.6019C182.799 18.415 182.622 18.191 182.553 17.9524L183.291 17.8829C183.339 18.0475 183.461 18.202 183.646 18.3309C183.831 18.4599 184.072 18.5587 184.345 18.6175C184.619 18.6763 184.914 18.6929 185.201 18.6659C185.489 18.6387 185.76 18.5688 185.986 18.463C186.211 18.3573 186.384 18.2194 186.487 18.0634C186.59 17.9073 186.619 17.7385 186.571 17.574C186.524 17.4094 186.402 17.2549 186.216 17.126C186.031 16.997 185.791 16.8982 185.517 16.8394L185.781 16.4396Z" fill="#EA5C4E"/>
</g>
<defs>
<clipPath id="clip0_1_135">
<rect width="200" height="125" fill="white" transform="translate(0 0.329956)"/>
</clipPath>
</defs>
</svg>
