<svg width="217" height="166" viewBox="0 0 217 166" fill="none" xmlns="http://www.w3.org/2000/svg">
<g clip-path="url(#clip0_1_85)">
<path d="M23.0476 164.624L20.9091 152.506M23.0476 164.624L215.514 19.2057L216.227 9.22599M23.0476 164.624L2.01888 145.734L3.08813 137.893M20.9091 152.506L44.7892 128.27M20.9091 152.506L3.08813 137.893M216.227 9.22599L204.465 13.8594M216.227 9.22599L201.257 1.38477L190.921 6.73105M3.08813 137.893L30.8889 114.726M44.7892 128.27L50.1355 124.349M44.7892 128.27L30.8889 114.726M50.1355 124.349H53.6997M50.1355 124.349L35.1659 111.518M30.8889 114.726L35.1659 111.518M53.6997 124.349L79.3616 107.597M53.6997 124.349L38.7301 111.518M35.1659 111.518H38.7301M79.3616 107.597L82.2129 102.251M79.3616 107.597L63.6794 94.7662M38.7301 111.518L63.6794 94.7662M82.2129 102.251L90.4106 96.1919M82.2129 102.251L68.3129 90.4892M63.6794 94.7662L68.3129 90.4892M90.4106 96.1919H93.9748M90.4106 96.1919L76.1538 85.1429M68.3129 90.4892L76.1538 85.1429M93.9748 96.1919L116.429 81.5787M93.9748 96.1919L78.6487 84.4301M76.1538 85.1429L78.6487 84.4301M116.429 81.5787L118.568 75.876M116.429 81.5787L100.747 69.8172M78.6487 84.4301L100.747 69.8172M118.568 75.876L135.319 69.1044M118.568 75.876L103.598 66.2531M100.747 69.8172L103.598 66.2531M135.319 69.1044L170.961 42.7294M135.319 69.1044L121.775 56.9862M103.598 66.2531L121.775 56.9862M170.961 42.7294L184.149 29.8983M170.961 42.7294L156.705 33.1061M121.775 56.9862L156.705 33.1061M184.149 29.8983H188.069M184.149 29.8983L169.892 21.7007M156.705 33.1061L169.892 21.7007M188.069 29.8983L201.257 19.2057M188.069 29.8983L173.1 20.9878M169.892 21.7007L173.1 20.9878M201.257 19.2057L204.465 13.8594M201.257 19.2057L187.357 10.6517M173.1 20.9878L187.357 10.6517M204.465 13.8594L190.921 6.73105M187.357 10.6517L190.921 6.73105" stroke="#EA5C4E" stroke-width="0.712838"/>
<path d="M52.6304 115.795C52.6304 116.248 52.3863 116.686 51.9378 117.022C51.4893 117.359 50.8532 117.577 50.1355 117.577C49.4177 117.577 48.7817 117.359 48.3331 117.022C47.8846 116.686 47.6406 116.248 47.6406 115.795C47.6406 115.342 47.8846 114.905 48.3331 114.568C48.7817 114.232 49.4177 114.013 50.1355 114.013C50.8532 114.013 51.4893 114.232 51.9378 114.568C52.3863 114.905 52.6304 115.342 52.6304 115.795Z" stroke="#EA5C4E" stroke-width="0.712838"/>
<path d="M70.4514 102.964C70.4514 103.417 70.2072 103.855 69.7588 104.191C69.3102 104.528 68.6741 104.746 67.9565 104.746C67.2387 104.746 66.6026 104.528 66.154 104.191C65.7056 103.855 65.4615 103.417 65.4615 102.964C65.4615 102.511 65.7056 102.074 66.154 101.737C66.6026 101.401 67.2387 101.182 67.9565 101.182C68.6741 101.182 69.3102 101.401 69.7588 101.737C70.2072 102.074 70.4514 102.511 70.4514 102.964Z" stroke="#EA5C4E" stroke-width="0.712838"/>
<path d="M91.8362 87.9943C91.8362 88.4476 91.5925 88.8853 91.1441 89.2218C90.695 89.5582 90.0591 89.7763 89.3413 89.7763C88.6242 89.7763 87.9876 89.5582 87.5393 89.2218C87.0909 88.8853 86.8464 88.4476 86.8464 87.9943C86.8464 87.5416 87.0909 87.1039 87.5393 86.7675C87.9876 86.431 88.6242 86.2122 89.3413 86.2122C90.0591 86.2122 90.695 86.431 91.1441 86.7675C91.5925 87.1039 91.8362 87.5416 91.8362 87.9943Z" stroke="#EA5C4E" stroke-width="0.712838"/>
<path d="M107.519 77.3016C107.519 77.755 107.275 78.1927 106.827 78.5291C106.377 78.8656 105.742 79.0837 105.024 79.0837C104.307 79.0837 103.67 78.8656 103.222 78.5291C102.773 78.1927 102.529 77.755 102.529 77.3016C102.529 76.849 102.773 76.4113 103.222 76.0748C103.67 75.7384 104.307 75.5195 105.024 75.5195C105.742 75.5195 106.377 75.7384 106.827 76.0748C107.275 76.4113 107.519 76.849 107.519 77.3016Z" stroke="#EA5C4E" stroke-width="0.712838"/>
<path d="M183.08 23.1263C183.08 23.6467 182.52 24.1955 181.654 24.1955C180.788 24.1955 180.228 23.6467 180.228 23.1263C180.228 22.6058 180.788 22.057 181.654 22.057C182.52 22.057 183.08 22.6058 183.08 23.1263Z" stroke="#EA5C4E" stroke-width="0.712838"/>
<path d="M193.059 15.998C193.059 16.5184 192.5 17.0672 191.634 17.0672C190.768 17.0672 190.208 16.5184 190.208 15.998C190.208 15.4775 190.768 14.9287 191.634 14.9287C192.5 14.9287 193.059 15.4775 193.059 15.998Z" stroke="#EA5C4E" stroke-width="0.712838"/>
</g>
<defs>
<clipPath id="clip0_1_85">
<rect width="215.99" height="165.378" fill="white" transform="translate(0.98999 0.330078)"/>
</clipPath>
</defs>
</svg>
