<svg width="209" height="156" viewBox="0 0 209 156" fill="none" xmlns="http://www.w3.org/2000/svg">
<g clip-path="url(#clip0_1_75)">
<path d="M21.1664 154.842L1.12866 135.279L0.896591 121.534M21.1664 154.842L205.711 23.7076L208.114 11.5822M21.1664 154.842L21.3483 141.707M0.896591 121.534L193.514 1.33875L196.672 1.67205M0.896591 121.534L4.25716 122.284M208.114 11.5822L21.3483 141.707M208.114 11.5822L206.235 8.44689M21.3483 141.707L18.4857 136.697M206.235 8.44689L18.4857 136.697M206.235 8.44689L196.672 1.67205M18.4857 136.697L4.25716 122.284M4.25716 122.284L196.672 1.67205" stroke="#EA5C4E" stroke-width="0.678559"/>
</g>
<defs>
<clipPath id="clip0_1_75">
<rect width="208.996" height="155.39" fill="white" transform="translate(0 0.320068)"/>
</clipPath>
</defs>
</svg>
