<svg width="125" height="167" viewBox="0 0 125 167" fill="none" xmlns="http://www.w3.org/2000/svg">
<g clip-path="url(#clip0_1_253)">
<path d="M61.421 55.4378V47.6935M61.421 55.4378L21.4089 37.5601M61.421 55.4378L101.433 38.1723M61.421 47.6935L124.236 21.0189M61.421 47.6935L0.757538 21.0189M21.4089 37.5601L15.3856 34.8688M21.4089 37.5601V117.392M101.433 38.1723L124.236 28.3328V21.0189M101.433 38.1723L98.3696 117.107M124.236 21.0189L112.189 17.5768M112.189 17.5768V8.97209C106.682 4.84183 101.003 7.25116 98.8514 8.97209V12.8442M112.189 17.5768V21.2107C110.468 23.5693 105.047 26.6795 98.8514 21.0189V12.8442M0.757538 21.0189V28.3328L15.3856 34.8688M0.757538 21.0189L11.0833 18.0072M15.3856 34.8688V119.974M11.0833 18.0072V8.54196C13.5212 6.6776 19.6879 4.06749 24.8508 8.54196L25.0173 13.7047M11.0833 18.0072V21.8793C16.5902 27.7305 22.9865 24.3172 25.281 21.8793L25.0173 13.7047M25.0173 13.7047L61.8512 0.797607L98.8514 12.8442M21.4089 117.392V125.136C20.5484 126.714 18.1391 128.922 15.3856 125.136V119.974M21.4089 117.392L27.8625 113.09M15.3856 119.974L6.35062 125.136M6.35062 125.136V130.729L63.5722 165.579M6.35062 125.136L63.5722 155.683M63.5722 165.579L116.922 130.729V125.136M63.5722 165.579V155.683M63.5722 155.683L116.922 125.136M116.922 125.136L105.305 119.974M109.608 34.8688L105.305 126.857C104.445 128.148 101.777 129.955 97.9908 126.857L98.3696 117.107M98.3696 117.107L96.7008 116.101" stroke="#EA5C4E" stroke-width="0.757534"/>
<mask id="mask0_1_253" style="mask-type:luminance" maskUnits="userSpaceOnUse" x="27" y="91" width="71" height="25">
<path fill-rule="evenodd" clip-rule="evenodd" d="M28.2618 91.3569C31.727 100.127 45.673 106.686 62.3497 106.686C79.026 106.686 92.9722 100.127 96.4379 91.3569C96.9788 92.7281 97.2644 94.1522 97.2644 95.6143C97.2644 106.432 81.6326 115.201 62.3497 115.201C43.0666 115.201 27.4346 106.432 27.4346 95.6143C27.4346 94.1522 27.7202 92.7281 28.2618 91.3569Z" fill="#FF0000"/>
</mask>
<g mask="url(#mask0_1_253)">
<path d="M28.2618 91.3569L28.9663 91.0789L28.2618 89.2957L27.5573 91.0789L28.2618 91.3569ZM96.4379 91.3569L97.1424 91.0789L96.4379 89.2957L95.7334 91.0789L96.4379 91.3569ZM27.5573 91.6357C29.3904 96.2748 33.9402 100.222 40.0373 102.999C46.1526 105.786 53.9175 107.444 62.3497 107.444V105.929C54.1051 105.929 46.5587 104.306 40.6656 101.621C34.7543 98.9277 30.5985 95.2097 28.9663 91.0789L27.5573 91.6357ZM62.3497 107.444C70.7818 107.444 78.5465 105.786 84.662 102.999C90.7594 100.222 95.3092 96.2748 97.1424 91.6357L95.7334 91.0789C94.1009 95.2097 89.9451 98.9277 84.034 101.621C78.1404 104.306 70.5942 105.929 62.3497 105.929V107.444ZM98.0219 95.6142C98.0219 94.0515 97.7166 92.5326 97.1424 91.0789L95.7334 91.6357C96.2417 92.9227 96.5068 94.253 96.5068 95.6142H98.0219ZM62.3497 115.959C72.0963 115.959 80.9577 113.744 87.4088 110.125C93.8358 106.52 98.0219 101.419 98.0219 95.6142H96.5068C96.5068 100.627 92.8775 105.32 86.668 108.804C80.4819 112.273 71.8861 114.444 62.3497 114.444V115.959ZM26.6771 95.6142C26.6771 101.419 30.8632 106.52 37.2904 110.125C43.7417 113.744 52.603 115.959 62.3497 115.959V114.444C52.8132 114.444 44.217 112.273 38.0316 108.804C31.822 105.32 28.1922 100.627 28.1922 95.6142H26.6771ZM27.5573 91.0789C26.9826 92.5326 26.6771 94.0515 26.6771 95.6142H28.1922C28.1922 94.253 28.4578 92.9227 28.9663 91.6357L27.5573 91.0789Z" fill="#EA5C4E"/>
</g>
<mask id="mask1_1_253" style="mask-type:luminance" maskUnits="userSpaceOnUse" x="27" y="98" width="71" height="25">
<path fill-rule="evenodd" clip-rule="evenodd" d="M28.2603 98.9261C31.7256 107.697 45.6715 114.256 62.3482 114.256C79.0252 114.256 92.9707 107.697 96.4364 98.9261C96.978 100.297 97.2636 101.721 97.2636 103.183C97.2636 114.001 81.6311 122.77 62.3482 122.77C43.0651 122.77 27.4331 114.001 27.4331 103.183C27.4331 101.721 27.7187 100.297 28.2603 98.9261Z" fill="#FF0000"/>
</mask>
<g mask="url(#mask1_1_253)">
<path d="M28.2603 98.9261L28.9648 98.6481L28.2603 96.8649L27.5557 98.6481L28.2603 98.9261ZM96.4364 98.9261L97.1409 98.6481L96.4364 96.8649L95.7319 98.6481L96.4364 98.9261ZM27.5557 99.2049C29.3888 103.844 33.9387 107.791 40.0358 110.569C46.1511 113.356 53.916 115.013 62.3482 115.013V113.498C54.1037 113.498 46.5573 111.875 40.664 109.19C34.7529 106.497 30.597 102.779 28.9648 98.6481L27.5557 99.2049ZM62.3482 115.013C70.7803 115.013 78.5449 113.356 84.6605 110.569C90.7579 107.791 95.3076 103.844 97.1409 99.2049L95.7319 98.6481C94.0994 102.779 89.9435 106.497 84.0325 109.19C78.1389 111.875 70.5927 113.498 62.3482 113.498V115.013ZM98.0211 103.183C98.0211 101.621 97.7151 100.103 97.1409 98.6481L95.7319 99.2049C96.2402 100.492 96.5061 101.822 96.5061 103.183H98.0211ZM62.3482 123.528C72.0948 123.528 80.9562 121.314 87.4073 117.694C93.835 114.089 98.0211 108.988 98.0211 103.183H96.5061C96.5061 108.196 92.876 112.89 86.6664 116.373C80.4804 119.843 71.8846 122.013 62.3482 122.013V123.528ZM26.6756 103.183C26.6756 108.988 30.8617 114.089 37.2888 117.694C43.7402 121.314 52.6015 123.528 62.3482 123.528V122.013C52.8118 122.013 44.2156 119.843 38.0301 116.373C31.8205 112.89 28.1906 108.196 28.1906 103.183H26.6756ZM27.5557 98.6481C26.9812 100.103 26.6756 101.621 26.6756 103.183H28.1906C28.1906 101.822 28.4562 100.492 28.9648 99.2049L27.5557 98.6481Z" fill="#EA5C4E"/>
</g>
<mask id="mask2_1_253" style="mask-type:luminance" maskUnits="userSpaceOnUse" x="27" y="106" width="71" height="25">
<path fill-rule="evenodd" clip-rule="evenodd" d="M28.2603 106.497C31.7256 115.268 45.6715 121.826 62.3482 121.826C79.0252 121.826 92.9707 115.268 96.4364 106.497C96.978 107.868 97.2636 109.293 97.2636 110.755C97.2636 121.572 81.6311 130.341 62.3482 130.341C43.0651 130.341 27.4331 121.572 27.4331 110.755C27.4331 109.293 27.7187 107.868 28.2603 106.497Z" fill="#FF0000"/>
</mask>
<g mask="url(#mask2_1_253)">
<path d="M28.2603 106.497L28.9648 106.219L28.2603 104.436L27.5557 106.219L28.2603 106.497ZM96.4364 106.497L97.1409 106.219L96.4364 104.436L95.7319 106.219L96.4364 106.497ZM27.5557 106.776C29.3888 111.415 33.9387 115.362 40.0358 118.14C46.1511 120.926 53.916 122.584 62.3482 122.584V121.069C54.1037 121.069 46.5573 119.447 40.664 116.762C34.7529 114.068 30.597 110.35 28.9648 106.219L27.5557 106.776ZM62.3482 122.584C70.7803 122.584 78.5449 120.926 84.6605 118.14C90.7579 115.362 95.3076 111.415 97.1409 106.776L95.7319 106.219C94.0994 110.35 89.9435 114.068 84.0325 116.762C78.1389 119.447 70.5927 121.069 62.3482 121.069V122.584ZM98.0211 110.755C98.0211 109.192 97.7151 107.673 97.1409 106.219L95.7319 106.776C96.2402 108.063 96.5061 109.393 96.5061 110.755H98.0211ZM62.3482 131.099C72.0948 131.099 80.9562 128.884 87.4073 125.265C93.835 121.66 98.0211 116.56 98.0211 110.755H96.5061C96.5061 115.767 92.876 120.461 86.6664 123.944C80.4804 127.414 71.8846 129.584 62.3482 129.584V131.099ZM26.6756 110.755C26.6756 116.56 30.8617 121.66 37.2888 125.265C43.7402 128.884 52.6015 131.099 62.3482 131.099V129.584C52.8118 129.584 44.2156 127.414 38.0301 123.944C31.8205 120.461 28.1906 115.767 28.1906 110.755H26.6756ZM27.5557 106.219C26.9812 107.673 26.6756 109.192 26.6756 110.755H28.1906C28.1906 109.393 28.4562 108.063 28.9648 106.776L27.5557 106.219Z" fill="#EA5C4E"/>
</g>
<mask id="mask3_1_253" style="mask-type:luminance" maskUnits="userSpaceOnUse" x="27" y="114" width="71" height="24">
<path fill-rule="evenodd" clip-rule="evenodd" d="M28.2604 114.07C31.726 122.84 45.6717 129.398 62.3482 129.398C79.0244 129.398 92.9707 122.84 96.4356 114.07C96.9772 115.44 97.2636 116.865 97.2636 118.327C97.2636 129.145 81.6311 137.914 62.3482 137.914C43.0651 137.914 27.4331 129.145 27.4331 118.327C27.4331 116.865 27.7188 115.44 28.2604 114.07Z" fill="#FF0000"/>
</mask>
<g mask="url(#mask3_1_253)">
<path d="M28.2604 114.07L28.9649 113.791L28.2604 112.008L27.5559 113.791L28.2604 114.07ZM96.4356 114.07L97.1401 113.791L96.4356 112.008L95.7311 113.791L96.4356 114.07ZM27.5559 114.348C29.3891 118.987 33.939 122.934 40.0361 125.712C46.1513 128.499 53.9161 130.156 62.3482 130.156V128.64C54.1038 128.64 46.5574 127.019 40.6643 124.333C34.7531 121.64 30.5972 117.922 28.9649 113.791L27.5559 114.348ZM62.3482 130.156C70.7803 130.156 78.5449 128.499 84.6605 125.712C90.7571 122.934 95.3069 118.987 97.1401 114.348L95.7311 113.791C94.0994 117.922 89.9435 121.64 84.0317 124.333C78.1389 127.019 70.5926 128.64 62.3482 128.64V130.156ZM98.0211 118.327C98.0211 116.765 97.7151 115.246 97.1401 113.791L95.7311 114.348C96.2402 115.635 96.5061 116.966 96.5061 118.327H98.0211ZM62.3482 138.672C72.0948 138.672 80.9562 136.457 87.4073 132.838C93.835 129.233 98.0211 124.132 98.0211 118.327H96.5061C96.5061 123.34 92.876 128.033 86.6664 131.517C80.4804 134.986 71.8846 137.157 62.3482 137.157V138.672ZM26.6756 118.327C26.6756 124.132 30.8617 129.233 37.2888 132.838C43.7402 136.457 52.6015 138.672 62.3482 138.672V137.157C52.8118 137.157 44.2156 134.986 38.0301 131.517C31.8205 128.033 28.1906 123.34 28.1906 118.327H26.6756ZM27.5559 113.791C26.9812 115.246 26.6756 116.765 26.6756 118.327H28.1906C28.1906 116.966 28.4563 115.635 28.9649 114.348L27.5559 113.791Z" fill="#EA5C4E"/>
</g>
<mask id="mask4_1_253" style="mask-type:luminance" maskUnits="userSpaceOnUse" x="27" y="83" width="71" height="25">
<path fill-rule="evenodd" clip-rule="evenodd" d="M28.2603 83.7883C31.7256 92.5583 45.6715 99.117 62.3482 99.117C79.0252 99.117 92.9707 92.5583 96.4364 83.7883C96.978 85.1587 97.2636 86.5836 97.2636 88.0457C97.2636 98.8633 81.6311 107.632 62.3482 107.632C43.0651 107.632 27.4331 98.8633 27.4331 88.0457C27.4331 86.5836 27.7187 85.1587 28.2603 83.7883Z" fill="#FF0000"/>
</mask>
<g mask="url(#mask4_1_253)">
<path d="M28.2603 83.7883L28.9648 83.5095L28.2603 81.7271L27.5557 83.5095L28.2603 83.7883ZM96.4364 83.7883L97.1409 83.5095L96.4364 81.7271L95.7319 83.5095L96.4364 83.7883ZM27.5557 84.0663C29.3888 88.7062 33.9387 92.6522 40.0358 95.4308C46.1511 98.2178 53.916 99.8745 62.3482 99.8745V98.3595C54.1037 98.3595 46.5573 96.7376 40.664 94.0521C34.7529 91.3583 30.597 87.6411 28.9648 83.5095L27.5557 84.0663ZM62.3482 99.8745C70.7803 99.8745 78.5449 98.2178 84.6605 95.4308C90.7579 92.6522 95.3076 88.7062 97.1409 84.0663L95.7319 83.5095C94.0994 87.6411 89.9435 91.3583 84.0325 94.0521C78.1389 96.7376 70.5927 98.3595 62.3482 98.3595V99.8745ZM98.0211 88.0456C98.0211 86.4829 97.7151 84.964 97.1409 83.5095L95.7319 84.0663C96.2402 85.3534 96.5061 86.6844 96.5061 88.0456H98.0211ZM62.3482 108.39C72.0948 108.39 80.9562 106.175 87.4073 102.556C93.835 98.9503 98.0211 93.8506 98.0211 88.0456H96.5061C96.5061 93.0583 92.876 97.7512 86.6664 101.235C80.4804 104.705 71.8846 106.875 62.3482 106.875V108.39ZM26.6756 88.0456C26.6756 93.8506 30.8617 98.9503 37.2888 102.556C43.7402 106.175 52.6015 108.39 62.3482 108.39V106.875C52.8118 106.875 44.2156 104.705 38.0301 101.235C31.8205 97.7512 28.1906 93.0583 28.1906 88.0456H26.6756ZM27.5557 83.5095C26.9812 84.964 26.6756 86.4829 26.6756 88.0456H28.1906C28.1906 86.6844 28.4562 85.3534 28.9648 84.0663L27.5557 83.5095Z" fill="#EA5C4E"/>
</g>
<mask id="mask5_1_253" style="mask-type:luminance" maskUnits="userSpaceOnUse" x="27" y="76" width="71" height="25">
<path fill-rule="evenodd" clip-rule="evenodd" d="M28.2588 76.2168C31.7241 84.9868 45.67 91.5455 62.3467 91.5455C79.0237 91.5455 92.9691 84.9868 96.4349 76.2168C96.9765 77.5872 97.2621 79.0121 97.2621 80.4741C97.2621 91.2917 81.6296 100.061 62.3467 100.061C43.0636 100.061 27.4317 91.2917 27.4317 80.4741C27.4317 79.0121 27.7173 77.5872 28.2588 76.2168Z" fill="#FF0000"/>
</mask>
<g mask="url(#mask5_1_253)">
<path d="M28.2588 76.2168L28.9633 75.9382L28.2588 74.1552L27.5543 75.9382L28.2588 76.2168ZM96.4349 76.2168L97.1394 75.9382L96.4349 74.1552L95.7304 75.9382L96.4349 76.2168ZM27.5543 76.4948C29.3873 81.1339 33.9372 85.0807 40.0344 87.8593C46.1497 90.6455 53.9145 92.303 62.3467 92.303V90.788C54.1022 90.788 46.5558 89.1661 40.6626 86.4806C34.7513 83.7868 30.5956 80.0688 28.9633 75.9382L27.5543 76.4948ZM62.3467 92.303C70.7788 92.303 78.5434 90.6455 84.659 87.8593C90.7564 85.0807 95.3061 81.1339 97.1394 76.4948L95.7304 75.9382C94.0979 80.0688 89.942 83.7868 84.031 86.4806C78.1374 89.1661 70.5912 90.788 62.3467 90.788V92.303ZM98.0196 80.4741C98.0196 78.9113 97.7136 77.3925 97.1394 75.9382L95.7304 76.4948C96.2387 77.7818 96.5045 79.1128 96.5045 80.4741H98.0196ZM62.3467 100.818C72.0934 100.818 80.9546 98.6034 87.4058 94.9847C93.8335 91.3788 98.0196 86.2791 98.0196 80.4741H96.5045C96.5045 85.4867 92.8744 90.1797 86.6649 93.6636C80.4797 97.1331 71.8831 99.3034 62.3467 99.3034V100.818ZM26.6741 80.4741C26.6741 86.2791 30.8603 91.3788 37.2874 94.9847C43.7387 98.6034 52.6001 100.818 62.3467 100.818V99.3034C52.8103 99.3034 44.2141 97.1331 38.0287 93.6628C31.819 90.1797 28.1892 85.4867 28.1892 80.4741H26.6741ZM27.5543 75.9382C26.9796 77.3925 26.6741 78.9113 26.6741 80.4741H28.1892C28.1892 79.1128 28.4548 77.7818 28.9633 76.4948L27.5543 75.9382Z" fill="#EA5C4E"/>
</g>
<mask id="mask6_1_253" style="mask-type:luminance" maskUnits="userSpaceOnUse" x="27" y="68" width="71" height="25">
<path fill-rule="evenodd" clip-rule="evenodd" d="M28.2603 68.5422C27.7187 69.9129 27.4331 71.3376 27.4331 72.7997C27.4331 83.6172 43.0651 92.3865 62.3482 92.3865C81.6311 92.3865 97.2636 83.6172 97.2636 72.7997C97.2636 71.3376 96.978 69.9129 96.4364 68.5422C92.9707 77.3123 79.0252 83.871 62.3482 83.871C45.6715 83.871 31.7256 77.3123 28.2603 68.5422Z" fill="#FF0000"/>
</mask>
<g mask="url(#mask6_1_253)">
<path d="M28.2603 68.5422L28.9648 68.2638L28.2603 66.4808L27.5557 68.2638L28.2603 68.5422ZM96.4364 68.5422L97.1409 68.2638L96.4364 66.4808L95.7319 68.2638L96.4364 68.5422ZM27.5557 68.2638C26.9812 69.7181 26.6756 71.237 26.6756 72.7997H28.1906C28.1906 71.4382 28.4562 70.1078 28.9648 68.8206L27.5557 68.2638ZM26.6756 72.7997C26.6756 78.6046 30.8617 83.7044 37.2888 87.3102C43.7402 90.929 52.6015 93.144 62.3482 93.144V91.6289C52.8118 91.6289 44.2156 89.4586 38.0301 85.9891C31.8205 82.5052 28.1906 77.8123 28.1906 72.7997H26.6756ZM62.3482 93.144C72.0948 93.144 80.9562 90.929 87.4073 87.3102C93.835 83.7044 98.0211 78.6046 98.0211 72.7997H96.5061C96.5061 77.8123 92.876 82.5052 86.6664 85.9891C80.4804 89.4586 71.8846 91.6289 62.3482 91.6289V93.144ZM98.0211 72.7997C98.0211 71.237 97.7151 69.7181 97.1409 68.2638L95.7319 68.8206C96.2402 70.1078 96.5061 71.4382 96.5061 72.7997H98.0211ZM62.3482 84.6286C70.7803 84.6286 78.5449 82.9718 84.6605 80.1849C90.7579 77.4062 95.3076 73.4599 97.1409 68.8206L95.7319 68.2638C94.0994 72.3948 89.9435 76.1124 84.0325 78.8061C78.1389 81.4916 70.5927 83.1135 62.3482 83.1135V84.6286ZM27.5557 68.8206C29.3888 73.4599 33.9387 77.4062 40.0358 80.1849C46.1511 82.9718 53.916 84.6286 62.3482 84.6286V83.1135C54.1037 83.1135 46.5573 81.4916 40.664 78.8061C34.7528 76.1124 30.597 72.3948 28.9648 68.2638L27.5557 68.8206Z" fill="#EA5C4E"/>
</g>
<mask id="mask7_1_253" style="mask-type:luminance" maskUnits="userSpaceOnUse" x="27" y="61" width="71" height="24">
<path fill-rule="evenodd" clip-rule="evenodd" d="M28.2603 61.0297C27.7187 62.4003 27.4331 63.825 27.4331 65.2872C27.4331 76.1047 43.0651 84.8739 62.3482 84.8739C81.6311 84.8739 97.2636 76.1047 97.2636 65.2872C97.2636 63.825 96.978 62.4003 96.4364 61.0297C92.9707 69.7999 79.0252 76.3584 62.3482 76.3584C45.6715 76.3584 31.7256 69.7999 28.2603 61.0297Z" fill="#FF0000"/>
</mask>
<g mask="url(#mask7_1_253)">
<path d="M28.2603 61.0297L28.9648 60.7513L28.2603 58.9683L27.5557 60.7513L28.2603 61.0297ZM96.4364 61.0297L97.1409 60.7513L96.4364 58.9683L95.7319 60.7513L96.4364 61.0297ZM27.5557 60.7513C26.9812 62.2055 26.6756 63.7244 26.6756 65.2872H28.1906C28.1906 63.9256 28.4562 62.5952 28.9648 61.3081L27.5557 60.7513ZM26.6756 65.2872C26.6756 71.0921 30.8617 76.1918 37.2888 79.7976C43.7402 83.4164 52.6015 85.6314 62.3482 85.6314V84.1163C52.8118 84.1163 44.2156 81.946 38.0301 78.4765C31.8205 74.9928 28.1906 70.2995 28.1906 65.2872H26.6756ZM62.3482 85.6314C72.0948 85.6314 80.9562 83.4164 87.4073 79.7976C93.835 76.1918 98.0211 71.0921 98.0211 65.2872H96.5061C96.5061 70.2995 92.876 74.9928 86.6664 78.4765C80.4804 81.946 71.8846 84.1163 62.3482 84.1163V85.6314ZM98.0211 65.2872C98.0211 63.7244 97.7151 62.2055 97.1409 60.7513L95.7319 61.3081C96.2402 62.5952 96.5061 63.9256 96.5061 65.2872H98.0211ZM62.3482 77.116C70.7803 77.116 78.5449 75.4589 84.6605 72.6724C90.7579 69.894 95.3076 65.9473 97.1409 61.3081L95.7319 60.7513C94.0994 64.8823 89.9435 68.6001 84.0325 71.2936C78.1389 73.979 70.5927 75.6011 62.3482 75.6011V77.116ZM27.5557 61.3081C29.3888 65.9473 33.9387 69.894 40.0358 72.6724C46.1511 75.4589 53.916 77.116 62.3482 77.116V75.6011C54.1037 75.6011 46.5573 73.979 40.664 71.2936C34.7528 68.6001 30.597 64.8823 28.9648 60.7513L27.5557 61.3081Z" fill="#EA5C4E"/>
</g>
<mask id="mask8_1_253" style="mask-type:luminance" maskUnits="userSpaceOnUse" x="27" y="54" width="71" height="24">
<path fill-rule="evenodd" clip-rule="evenodd" d="M27.9563 54.3777C27.6124 55.481 27.4331 56.616 27.4331 57.7746C27.4331 68.592 43.0651 77.3615 62.3482 77.3615C81.6311 77.3615 97.2636 68.592 97.2636 57.7746C97.2636 56.616 97.0841 55.481 96.7401 54.3777C93.8729 63.5758 79.5661 70.5672 62.3482 70.5672C45.1304 70.5672 30.8235 63.5758 27.9563 54.3777Z" fill="#FF0000"/>
</mask>
<g mask="url(#mask8_1_253)">
<path d="M27.9563 54.3777L28.6795 54.1522L27.9563 51.832L27.2331 54.1522L27.9563 54.3777ZM96.7401 54.3777L97.4636 54.1522L96.7401 51.832L96.0167 54.1522L96.7401 54.3777ZM27.2331 54.1522C26.8673 55.3259 26.6756 56.5369 26.6756 57.7746H28.1906C28.1906 56.6953 28.3575 55.6361 28.6795 54.6031L27.2331 54.1522ZM26.6756 57.7746C26.6756 63.5796 30.8617 68.6795 37.2888 72.285C43.7402 75.904 52.6015 78.119 62.3482 78.119V76.6039C52.8118 76.6039 44.2156 74.4336 38.0301 70.9637C31.8205 67.4803 28.1906 62.787 28.1906 57.7746H26.6756ZM62.3482 78.119C72.0948 78.119 80.9562 75.904 87.4073 72.285C93.835 68.6796 98.0211 63.5796 98.0211 57.7746H96.5061C96.5061 62.787 92.876 67.4803 86.6664 70.9637C80.4804 74.4336 71.8846 76.6039 62.3482 76.6039V78.119ZM98.0211 57.7746C98.0211 56.5369 97.8287 55.3259 97.4636 54.1522L96.0167 54.6031C96.3386 55.6361 96.5061 56.6953 96.5061 57.7746H98.0211ZM62.3482 71.3247C71.0534 71.3247 79.0487 69.5583 85.2514 66.6057C91.4336 63.6628 95.9409 59.4864 97.4636 54.6031L96.0167 54.1522C94.6721 58.4671 90.592 62.3854 84.5999 65.2377C78.6283 68.0804 70.8607 69.8096 62.3482 69.8096V71.3247ZM27.2331 54.6031C28.7553 59.4864 33.2627 63.6628 39.4452 66.6057C45.648 69.5583 53.643 71.3247 62.3482 71.3247V69.8096C53.8356 69.8096 46.0682 68.0804 40.0963 65.2377C34.1042 62.3854 30.0246 58.4671 28.6795 54.1522L27.2331 54.6031Z" fill="#EA5C4E"/>
</g>
<mask id="mask9_1_253" style="mask-type:luminance" maskUnits="userSpaceOnUse" x="27" y="47" width="71" height="25">
<path fill-rule="evenodd" clip-rule="evenodd" d="M28.2603 47.7255C27.7187 49.0961 27.4331 50.5208 27.4331 51.983C27.4331 62.8003 43.0651 71.5695 62.3482 71.5695C81.6311 71.5695 97.2636 62.8003 97.2636 51.983C97.2636 50.5208 96.978 49.0961 96.4364 47.7255C92.9707 56.4957 79.0252 63.0545 62.3482 63.0545C45.6715 63.0545 31.7256 56.4957 28.2603 47.7255Z" fill="#FF0000"/>
</mask>
<g mask="url(#mask9_1_253)">
<path d="M28.2603 47.7255L28.9648 47.4471L28.2603 45.6641L27.5557 47.4471L28.2603 47.7255ZM96.4364 47.7255L97.1409 47.4471L96.4364 45.6641L95.7319 47.4471L96.4364 47.7255ZM27.5557 47.4471C26.9812 48.9013 26.6756 50.4202 26.6756 51.983H28.1906C28.1906 50.6214 28.4562 49.291 28.9648 48.0039L27.5557 47.4471ZM26.6756 51.983C26.6756 57.7879 30.8617 62.8879 37.2888 66.4934C43.7402 70.1124 52.6015 72.327 62.3482 72.327V70.8119C52.8118 70.8119 44.2156 68.6419 38.0301 65.172C31.8205 61.6886 28.1906 56.9953 28.1906 51.983H26.6756ZM62.3482 72.327C72.0948 72.327 80.9562 70.1124 87.4073 66.4934C93.835 62.8879 98.0211 57.7879 98.0211 51.983H96.5061C96.5061 56.9953 92.876 61.6886 86.6664 65.172C80.4804 68.642 71.8846 70.8119 62.3482 70.8119V72.327ZM98.0211 51.983C98.0211 50.4202 97.7151 48.9013 97.1409 47.4471L95.7319 48.0039C96.2402 49.291 96.5061 50.6214 96.5061 51.983H98.0211ZM62.3482 63.812C70.7803 63.812 78.5449 62.1548 84.6605 59.3682C90.7579 56.5898 95.3076 52.6431 97.1409 48.0039L95.7319 47.4471C94.0994 51.5781 89.9435 55.2959 84.0325 57.9894C78.1389 60.6748 70.5927 62.2969 62.3482 62.2969V63.812ZM27.5557 48.0039C29.3888 52.6431 33.9387 56.5898 40.0358 59.3682C46.1511 62.1548 53.916 63.812 62.3482 63.812V62.2969C54.1037 62.2969 46.5573 60.6748 40.664 57.9894C34.7528 55.2959 30.597 51.5781 28.9648 47.4471L27.5557 48.0039Z" fill="#EA5C4E"/>
</g>
<mask id="mask10_1_253" style="mask-type:luminance" maskUnits="userSpaceOnUse" x="27" y="40" width="71" height="25">
<path fill-rule="evenodd" clip-rule="evenodd" d="M28.2603 40.2137C31.7256 48.9839 45.6715 55.5428 62.3482 55.5428C79.0252 55.5428 92.9707 48.9839 96.4364 40.2137C96.978 41.5844 97.2636 43.0091 97.2636 44.4712C97.2636 55.2886 81.6311 64.0577 62.3482 64.0577C43.0651 64.0577 27.4331 55.2886 27.4331 44.4712C27.4331 43.0091 27.7187 41.5844 28.2603 40.2137Z" fill="#FF0000"/>
</mask>
<g mask="url(#mask10_1_253)">
<path d="M28.2603 40.2137L28.9648 39.9354L28.2603 38.1523L27.5557 39.9354L28.2603 40.2137ZM96.4364 40.2137L97.1409 39.9354L96.4364 38.1523L95.7319 39.9354L96.4364 40.2137ZM27.5557 40.4921C29.3888 45.1314 33.9387 49.0781 40.0358 51.8564C46.1511 54.643 53.916 56.3003 62.3482 56.3003V54.7852C54.1037 54.7852 46.5573 53.1631 40.664 50.4777C34.7529 47.7841 30.597 44.0663 28.9648 39.9354L27.5557 40.4921ZM62.3482 56.3003C70.7803 56.3003 78.5449 54.643 84.6605 51.8564C90.7579 49.0781 95.3076 45.1314 97.1409 40.4921L95.7319 39.9354C94.0994 44.0663 89.9435 47.7841 84.0325 50.4777C78.1389 53.1631 70.5927 54.7852 62.3482 54.7852V56.3003ZM98.0211 44.4712C98.0211 42.9085 97.7151 41.3896 97.1409 39.9354L95.7319 40.4921C96.2402 41.7793 96.5061 43.1097 96.5061 44.4712H98.0211ZM62.3482 64.8153C72.0948 64.8153 80.9562 62.6007 87.4073 58.9817C93.835 55.3762 98.0211 50.2761 98.0211 44.4712H96.5061C96.5061 49.4836 92.876 54.1768 86.6664 57.6603C80.4804 61.1302 71.8846 63.3002 62.3482 63.3002V64.8153ZM26.6756 44.4712C26.6756 50.2761 30.8617 55.3762 37.2888 58.9817C43.7402 62.6007 52.6015 64.8153 62.3482 64.8153V63.3002C52.8118 63.3002 44.2156 61.1302 38.0301 57.6603C31.8205 54.1768 28.1906 49.4836 28.1906 44.4712H26.6756ZM27.5557 39.9354C26.9812 41.3896 26.6756 42.9085 26.6756 44.4712H28.1906C28.1906 43.1097 28.4562 41.7793 28.9648 40.4921L27.5557 39.9354Z" fill="#EA5C4E"/>
</g>
</g>
<defs>
<clipPath id="clip0_1_253">
<rect width="124.993" height="165.9" fill="white" transform="translate(0 0.330078)"/>
</clipPath>
</defs>
</svg>
