<svg width="204" height="164" viewBox="0 0 204 164" fill="none" xmlns="http://www.w3.org/2000/svg">
<g clip-path="url(#clip0_1_160)">
<path d="M3.91092 69.5391L169.025 1.6886C170.27 1.17702 171.659 1.14093 172.929 1.58719L198.047 10.4145M3.91092 69.5391L41.0325 86.575M3.91092 69.5391V84.503C3.91092 85.8384 4.39793 87.1278 5.28065 88.1297L13.6956 97.6807C14.5065 98.6015 14.9855 99.7664 15.0562 100.992L15.9311 116.137M198.047 10.4145V21.4904C198.047 23.6017 196.835 25.5256 194.932 26.4379L187.011 30.2334M198.047 10.4145L41.0325 86.575M41.0325 86.575V101.106M15.9311 116.137L16.0803 118.72C16.2751 122.095 13.4016 124.841 10.0394 124.493L1.90436 123.653M15.9311 116.137L1.90436 123.653M187.011 30.2334L41.0325 101.106M187.011 30.2334V49.1224C187.011 50.6399 187.639 52.0897 188.747 53.1269L203.063 66.5328M41.0325 101.106L32.2837 106.045C30.5605 107.018 29.4947 108.843 29.4947 110.822V129.013C29.4947 130.398 30.0192 131.733 30.9628 132.748L49.0588 152.213M49.0588 152.213L203.063 66.5328M49.0588 152.213C49.0588 152.213 49.0588 159.213 49.0588 162.735M203.063 66.5328V70.385C203.063 72.3424 202.059 74.1292 200.365 75.1102C184.594 84.2438 103.176 131.395 49.0588 162.735M49.0588 162.735C33.7663 151.848 11.354 135.893 4.19291 130.794C2.74711 129.765 1.90436 128.111 1.90436 126.336V123.653" stroke="#EA5C4E" stroke-width="0.914358"/>
</g>
<defs>
<clipPath id="clip0_1_160">
<rect width="202.987" height="163.67" fill="white" transform="translate(0.98999 0.330017)"/>
</clipPath>
</defs>
</svg>
