<svg width="50" height="50" viewBox="0 0 50 50" fill="none" xmlns="http://www.w3.org/2000/svg">
<path d="M32.5 6.66663H43.3333V47.5H6.66663V6.66663H17.5" stroke="white" stroke-width="2" stroke-miterlimit="10"/>
<path d="M18.3333 3.33337H31.6667C32.1267 3.33337 32.5 3.70671 32.5 4.16671V8.33337C32.5 8.79337 32.1267 9.16671 31.6667 9.16671H18.3333C17.8733 9.16671 17.5 8.79337 17.5 8.33337V4.16671C17.5 3.70671 17.8733 3.33337 18.3333 3.33337Z" stroke="white" stroke-width="2" stroke-miterlimit="10"/>
<path d="M11.6667 9.16663H10V10.8333H11.6667V9.16663Z" fill="white"/>
<path d="M11.6667 13.3334H10V15H11.6667V13.3334Z" fill="white"/>
<path d="M28.3334 15.8334H38.3334V25.8334H28.3334V15.8334Z" stroke="white" stroke-width="2" stroke-miterlimit="10"/>
<path d="M12.5 20.8334H20.8333" stroke="white" stroke-width="2" stroke-miterlimit="10"/>
<path d="M12.5 36.6667H20.8333" stroke="white" stroke-width="2" stroke-miterlimit="10"/>
<path d="M16.6666 32.5V40.8333" stroke="white" stroke-width="2" stroke-miterlimit="10"/>
<path d="M31.1716 20.3384L33.3333 22.5001L36.3541 19.4792" stroke="white" stroke-width="2" stroke-miterlimit="10"/>
<path d="M28.3334 31.6667H38.3334V41.6667H28.3334V31.6667Z" stroke="white" stroke-width="2" stroke-miterlimit="10"/>
</svg>
