<svg width="50" height="50" viewBox="0 0 50 50" fill="none" xmlns="http://www.w3.org/2000/svg">
<g id="&#208;&#145;&#208;&#181;&#208;&#183; &#208;&#189;&#208;&#176;&#208;&#183;&#208;&#178;&#208;&#176;&#208;&#189;&#208;&#184;&#209;&#143; (1) 1">
<path id="Vector" d="M6.73975 19.8727H14.307C14.8462 19.8727 15.2835 19.4354 15.2835 18.8961C15.2835 18.3569 14.8462 17.9196 14.307 17.9196H6.73975C6.2005 17.9196 5.76318 18.3569 5.76318 18.8961C5.76318 19.4354 6.2004 19.8727 6.73975 19.8727Z" fill="white"/>
<path id="Vector_2" d="M6.73975 26.635H14.307C14.8462 26.635 15.2835 26.1978 15.2835 25.6585C15.2835 25.1193 14.8462 24.6819 14.307 24.6819H6.73975C6.2005 24.6819 5.76318 25.1193 5.76318 25.6585C5.76318 26.1978 6.2004 26.635 6.73975 26.635Z" fill="white"/>
<path id="Vector_3" d="M16.1145 43.0036C15.9096 42.5125 15.332 42.2714 14.839 42.4754C14.3475 42.6787 14.1078 43.2599 14.3117 43.7507C14.5158 44.2425 15.094 44.4823 15.5861 44.2791C16.0773 44.0763 16.3187 43.4944 16.1145 43.0036Z" fill="white"/>
<path id="Vector_4" d="M49.738 27.8923L38.1224 15.4235L41.6787 11.8753C42.2965 11.2645 42.6368 10.4495 42.6368 9.58043C42.6368 8.72349 42.3049 7.91685 41.7029 7.30933C40.4574 6.05151 38.4075 6.0353 37.1331 7.27349C37.13 7.27651 37.127 7.27954 37.1239 7.28256L32.2477 12.1469H30.4259V8.39664C30.4259 7.85738 29.9886 7.42008 29.4494 7.42008H24.2781V6.62231C24.2781 6.08306 23.8409 5.64575 23.3015 5.64575C22.7622 5.64575 22.325 6.08306 22.325 6.62231V7.42008H18.7575V6.62231C18.7575 6.08306 18.3202 5.64575 17.781 5.64575C17.2418 5.64575 16.8044 6.08306 16.8044 6.62231V7.42008H13.2369V6.62231C13.2369 6.08306 12.7995 5.64575 12.2603 5.64575C11.721 5.64575 11.2837 6.08306 11.2837 6.62231V7.42008H7.71601V6.62231C7.71601 6.08306 7.27871 5.64575 6.73945 5.64575C6.2002 5.64575 5.76289 6.08306 5.76289 6.62231V7.42008H0.976562C0.437305 7.42008 0 7.85738 0 8.39664V43.3771C0 43.9164 0.437305 44.3536 0.976562 44.3536H10.9445C11.4838 44.3536 11.9211 43.9164 11.9211 43.3771C11.9211 42.8379 11.4838 42.4005 10.9445 42.4005H1.95312V9.3732H5.76289V10.2592C5.76289 10.7985 6.2002 11.2358 6.73945 11.2358C7.27871 11.2358 7.71601 10.7985 7.71601 10.2592V9.3732H11.2836V10.2592C11.2836 10.7985 11.7209 11.2358 12.2601 11.2358C12.7994 11.2358 13.2368 10.7985 13.2368 10.2592V9.3732H16.8043V10.2592C16.8043 10.7985 17.2416 11.2358 17.7809 11.2358C18.3201 11.2358 18.7574 10.7985 18.7574 10.2592V9.3732H22.3249V10.2592C22.3249 10.7985 22.7622 11.2358 23.3015 11.2358C23.8407 11.2358 24.278 10.7985 24.278 10.2592V9.3732H28.4726V12.1524C26.7185 12.2237 25.0434 12.9644 23.7996 14.2013L16.613 21.3878C16.1787 21.822 16.2594 22.5659 16.7731 22.8984C17.5824 23.4218 18.4894 23.7601 19.4371 23.8965C19.753 23.942 20.0734 23.9651 20.3964 23.9651C20.398 23.9651 20.3994 23.965 20.4009 23.965L19.2799 25.0834C19.1985 25.1646 19.134 25.2591 19.0863 25.3611L15.9535 30.0666C15.6713 30.4906 15.556 30.9748 15.5981 31.4441H6.73945C6.2002 31.4441 5.76289 31.8814 5.76289 32.4206C5.76289 32.9599 6.2002 33.3973 6.73945 33.3973H17.7377C18.1605 33.3973 18.5868 33.2563 18.9347 33.0198L23.6964 29.7844C23.7528 29.7474 23.8071 29.7039 23.8547 29.6564L26.0632 27.4531L28.4727 29.8573V42.4005H19.5364C18.9971 42.4005 18.5599 42.8379 18.5599 43.3771C18.5599 43.9164 18.9971 44.3536 19.5364 44.3536H29.4494C29.9886 44.3536 30.4259 43.9164 30.4259 43.3771V31.7636C31.6605 32.7889 33.1997 33.3478 34.8251 33.3478H38.7212C39.5315 33.3478 40.3171 33.6839 40.8717 34.2645L48.3122 42.1715C48.904 42.8005 49.9999 42.367 49.9999 41.5023V28.5579C50 28.3109 49.9064 28.073 49.738 27.8923ZM25.1809 15.5824C26.1267 14.6365 27.4221 14.0999 28.7597 14.0999H30.2897L24.2052 20.1696C23.6423 20.7103 23.1094 21.2399 22.3884 21.5741C21.3245 22.0671 20.0885 22.1459 18.97 21.793L25.1809 15.5824ZM38.4979 8.67065C39.0074 8.17984 39.8211 8.18501 40.3153 8.68394C40.5527 8.92359 40.6835 9.24195 40.6835 9.58043C40.6835 9.92378 40.5493 10.2456 40.3024 10.4897L30.0964 20.6719L29.6046 20.18C29.144 19.7195 28.5629 19.3813 27.9352 19.2076L38.4979 8.67065ZM17.837 31.4044C17.7534 31.4611 17.6755 31.4546 17.603 31.3828C17.495 31.2758 17.5498 31.1934 17.5793 31.1491L20.1312 27.316L21.6388 28.8211L17.837 31.4044ZM23.1659 27.5849L21.3541 25.773L23.2149 23.9164C23.3905 24.5523 23.7386 25.1326 24.2043 25.5983L24.6806 26.0736L23.1659 27.5849ZM48.0469 39.0395L42.2893 32.921C41.363 31.951 40.0625 31.3948 38.7212 31.3948H34.8251C33.5059 31.3948 32.2654 30.8821 31.3322 29.9515L25.5818 24.2136C24.7515 23.5911 24.937 22.2109 25.582 21.5558C26.3067 20.8505 27.5146 20.852 28.2234 21.561L32.8955 26.233C33.2714 26.6088 33.9006 26.6089 34.2766 26.233C34.658 25.8518 34.658 25.2334 34.2766 24.8519L31.4775 22.0528L36.7389 16.8038L48.0469 28.9424V39.0395Z" fill="white"/>
</g>
</svg>
